# xmcd CD database file
#
# Track frame offsets:
#	150
#	19688
#	35504
#	53729
#	64061
#	81819
#	108236
#	133581
#	149726
#	163568
#	175668
#	204960
#	218018
#	237586
#
# Disc length: 3371 seconds
#
# Revision: 0
# Processed by: cddbd v1.5.1PL0 Copyright (c) Steve Scherf et al.
# Submitted via: CDex 1.51
#
DISCID=bf0d290e
DTITLE=藤原ヒロシ - HIROSHI'sKICK BACK Vol.01
DYEAR=2004
DGENRE=Other
TTITLE0=01-Tim Story - ]The Hold
TTITLE1=02-Todd Rundgren - Be Nice To Me
TTITLE2=03-Jesse Colin Young - Sunlight
TTITLE3=04-Felt - Book Of Swords
TTITLE4=05-The Durutti Column - I Get Alione Without You Very Well
TTITLE5=06-Patti Austin - That's Enough For Me
TTITLE6=07-Hiroshi Fujiwara - Dawn
TTITLE7=08-The Specials - Do Nothing
TTITLE8=09-Brian Eno -  Slow Watar
TTITLE9=10-戸川純 - Femme Fatale
TTITLE10=11-Holger Czukay - Persian Love
TTITLE11=12-New Composers - Lovestory
TTITLE12=13-Minnie Riperton - Alone In Brewster Bay
TTITLE13=14-Willie Nelson - Moonlight In Vermont
EXTD=YEAR: 2004
EXTT0=
EXTT1=
EXTT2=
EXTT3=
EXTT4=
EXTT5=
EXTT6=
EXTT7=
EXTT8=
EXTT9=
EXTT10=
EXTT11=
EXTT12=
EXTT13=
PLAYORDER=
